<?xml version="1.0" standalone="no"?>
<!DOCTYPE svg PUBLIC "-//W3C//DTD SVG 20010904//EN"
 "http://www.w3.org/TR/2001/REC-SVG-20010904/DTD/svg10.dtd">
<svg version="1.0" xmlns="http://www.w3.org/2000/svg"
 width="280.000000pt" height="280.000000pt" viewBox="0 0 280.000000 280.000000"
 preserveAspectRatio="xMidYMid meet">

<g transform="translate(0.000000,280.000000) scale(0.100000,-0.100000)"
fill="#000000" stroke="none">
<path d="M823 1946 c3 -80 9 -151 12 -157 5 -7 36 -8 94 -4 l88 7 6 -68 c4
-38 7 -154 7 -257 l0 -189 90 4 c67 2 93 7 100 18 5 8 10 56 11 105 1 50 4
162 8 250 l6 160 75 3 c129 4 120 -6 120 131 l0 119 -187 6 c-104 3 -244 9
-312 12 l-124 7 6 -147z"/>
<path d="M1860 2080 c-30 -5 -122 -8 -204 -9 -137 -1 -148 -2 -141 -18 3 -10
19 -103 35 -208 39 -257 53 -455 41 -585 -11 -112 -25 -144 -76 -169 -41 -20
-219 -16 -349 9 -61 11 -116 20 -123 20 -14 0 -17 -150 -4 -265 l6 -60 75 -32
c96 -41 217 -57 365 -48 198 12 297 46 374 130 111 121 136 313 106 825 -19
343 -26 413 -40 415 -5 1 -35 -1 -65 -5z"/>
</g>
</svg>
